<svg xmlns="http://www.w3.org/2000/svg" xmlns:xlink="http://www.w3.org/1999/xlink" width="22" height="16" viewBox="0 0 22 16"><defs><path id="a" d="M118.5 169h16a1.5 1.5 0 1 1 0 3h-16a1.5 1.5 0 0 1 0-3z"/><path id="b" d="M118.5 174h16a1.5 1.5 0 1 1 0 3h-16a1.5 1.5 0 0 1 0-3z"/><path id="c" d="M118.5 179h16a1.5 1.5 0 0 1 0 3h-16a1.5 1.5 0 0 1 0-3z"/></defs><g transform="translate(-115 -167)"><use fill="#f7f7f7" xlink:href="#a"/></g><g transform="translate(-115 -167)"><use fill="#f7f7f7" xlink:href="#b"/></g><g transform="translate(-115 -167)"><use fill="#f7f7f7" xlink:href="#c"/></g></svg>