<svg xmlns="http://www.w3.org/2000/svg" viewBox="0 0 586.67 468.56"><title>Ресурс 2</title><g id="Слой_2" data-name="Слой 2"><g id="Слой_1-2" data-name="Слой 1"><path d="M553,42.59c20.81,46,33.83,124,33.67,212.57-.15,87.66-13.12,165-33.67,211.16Z" fill="#e2e2e2"/><path d="M553,467.23v.58a.25.25,0,0,1-.25.25h-.13C552.75,467.79,552.87,467.51,553,467.23Z" fill="#e2e2e2"/><path d="M553,466.78v.45c-.13.28-.25.56-.38.83h-.2C552.62,467.64,552.81,467.21,553,466.78Z" fill="#e2e2e2"/><path d="M553,466.46v.32c-.19.43-.38.86-.58,1.28h-.14C552.52,467.54,552.76,467,553,466.46Z" fill="#e2e2e2"/><path d="M553,466.32v.14c-.24.54-.48,1.08-.72,1.6h-.06Q552.61,467.21,553,466.32Z" fill="#e2e2e2"/><path d="M553,42.59V466.32q-.39.89-.78,1.74H464.37C443.12,422.2,429.12,344,429.12,255c0-89.23,14.1-167.22,35.46-213h88a.39.39,0,0,1,.26.09C552.87,42.29,552.93,42.44,553,42.59Z" fill="#e2e2e2"/><path d="M553,42.52v.07c-.07-.15-.13-.3-.2-.44a.2.2,0,0,1,.11.11.47.47,0,0,1,.06.15A.14.14,0,0,1,553,42.52Z" fill="#e2e2e2"/><path d="M553,42.41a.47.47,0,0,0-.06-.15A.22.22,0,0,1,553,42.41Z" fill="#e2e2e2"/><path d="M501.94,0l-.29.09L501,.3a30.07,30.07,0,0,0-5.25,2.15c.72-.38,1.43-.73,2.15-1,.33-.15.66-.28,1-.41A27.92,27.92,0,0,1,501.94,0Z" fill="#e2e2e2"/><path d="M464.38,42.06h.2c-21.36,45.76-35.46,123.75-35.46,213,0,89,14,167.16,35.25,213h-.22c-21.24-45.86-35.24-124.06-35.24-213C428.91,165.82,443,87.82,464.38,42.06Z" fill="#e2e2e2"/><path d="M464.24,42.06h.14c-21.37,45.76-35.47,123.76-35.47,213,0,88.94,14,167.14,35.24,213h-.23c-21.22-45.88-35.2-124-35.2-212.9C428.72,165.85,442.84,87.81,464.24,42.06Z" fill="#e2e2e2"/><path d="M464.17,42.06h.07c-21.4,45.75-35.52,123.79-35.52,213.1,0,88.88,14,167,35.2,212.9h-.07c-21.21-45.88-35.19-124-35.19-212.9C428.66,165.85,442.78,87.81,464.17,42.06Z" fill="#e2e2e2"/><path d="M1,42.06H464.17c-21.39,45.75-35.51,123.79-35.51,213.1,0,88.88,14,167,35.19,212.9H1a.47.47,0,0,1-.46-.46V42.52A.47.47,0,0,1,1,42.06Z" fill="#e2e2e2"/><path d="M553,466.32v1.49a.25.25,0,0,1-.25.25H1a.47.47,0,0,1-.46-.46V42.52A.47.47,0,0,1,1,42.06H552.54a.39.39,0,0,1,.26.09.2.2,0,0,1,.11.11.22.22,0,0,1,.06.15.14.14,0,0,1,0,.11v.07" fill="none" stroke="#201600" stroke-linecap="round" stroke-miterlimit="10"/></g></g></svg>