<svg display="none" version="1.1" xmlns="http://www.w3.org/2000/svg" xmlns:xlink="http://www.w3.org/1999/xlink">
	<defs>
		<symbol id="next" viewBox="0 0 30 28">
			<path id="a" d="M3.33 13.19h21.12l-9.1-8.95a1.3 1.3 0 0 1 0-1.86 1.35 1.35 0 0 1 1.88 0l11.37 11.19a1.34 1.34 0 0 1 .33.52 1.29 1.29 0 0 1-.32 1.34l-11.38 11.19a1.34 1.34 0 0 1-1.88 0 1.3 1.3 0 0 1 0-1.86l9.1-8.95h-21.12c-.73 0-1.33-.59-1.33-1.31 0-.72.6-1.31 1.33-1.31z"/>
		</symbol>

		<symbol id="prev" viewBox="0 0 30 28">
			<path d="M29 14.5c0 .72-.6 1.31-1.33 1.31h-21.12l9.1 8.95a1.3 1.3 0 0 1 0 1.86 1.34 1.34 0 0 1-1.88 0l-11.38-11.2a1.31 1.31 0 0 1-.3-1.39 1.3 1.3 0 0 1 .3-.46l11.38-11.19a1.35 1.35 0 0 1 1.88 0 1.3 1.3 0 0 1 0 1.86l-9.1 8.95h21.12c.73 0 1.33.59 1.33 1.3z"/>
		</symbol>

		<symbol id="burger" viewBox="0 0 22 16">
			<path d="M3.5 2h16a1.5 1.5 0 1 1 0 3h-16a1.5 1.5 0 0 1 0-3z"/>
			<path id="b" d="M3.5 7h16a1.5 1.5 0 1 1 0 3h-16a1.5 1.5 0 0 1 0-3z"/>
			<path id="c" d="M3.5 12h16a1.5 1.5 0 0 1 0 3h-16a1.5 1.5 0 0 1 0-3z"/>
		</symbol>

		<symbol id="loupe" viewBox="0 0 21 21">
			<path d="M14.18 12.47c.27.05.52.18.73.39l3.9 3.9a1.45 1.45 0 1 1-2.05 2.04l-3.9-3.9c-.2-.2-.34-.45-.4-.72a6.87 6.87 0 0 1-8.76-10.48 6.87 6.87 0 0 1 10.48 8.77zm-2-7.54a5.13 5.13 0 1 0-7.25 7.26 5.13 5.13 0 0 0 7.25-7.26z"/>
		</symbol>

		<symbol id="instagram" viewBox="0 0 455.731 455.731">
			<rect x="0" y="0" width="455.731" height="455.731" fill="white"/>
			<path d="M227.86,182.55c-24.98,0-45.32,20.33-45.32,45.31c0,24.99,20.34,45.33,45.32,45.33
	c24.99,0,45.32-20.34,45.32-45.33C273.18,202.88,252.85,182.55,227.86,182.55z M227.86,182.55c-24.98,0-45.32,20.33-45.32,45.31
	c0,24.99,20.34,45.33,45.32,45.33c24.99,0,45.32-20.34,45.32-45.33C273.18,202.88,252.85,182.55,227.86,182.55z M303.36,108.66
	H152.37c-24.1,0-43.71,19.61-43.71,43.71v150.99c0,24.1,19.61,43.71,43.71,43.71h150.99c24.1,0,43.71-19.61,43.71-43.71V152.37
	C347.07,128.27,327.46,108.66,303.36,108.66z M227.86,306.35c-43.27,0-78.48-35.21-78.48-78.49c0-43.27,35.21-78.48,78.48-78.48
	c43.28,0,78.49,35.21,78.49,78.48C306.35,271.14,271.14,306.35,227.86,306.35z M308.87,165.61c-10.24,0-18.57-8.33-18.57-18.57
	s8.33-18.57,18.57-18.57s18.57,8.33,18.57,18.57S319.11,165.61,308.87,165.61z M227.86,182.55c-24.98,0-45.32,20.33-45.32,45.31
	c0,24.99,20.34,45.33,45.32,45.33c24.99,0,45.32-20.34,45.32-45.33C273.18,202.88,252.85,182.55,227.86,182.55z M303.36,108.66
	H152.37c-24.1,0-43.71,19.61-43.71,43.71v150.99c0,24.1,19.61,43.71,43.71,43.71h150.99c24.1,0,43.71-19.61,43.71-43.71V152.37
	C347.07,128.27,327.46,108.66,303.36,108.66z M227.86,306.35c-43.27,0-78.48-35.21-78.48-78.49c0-43.27,35.21-78.48,78.48-78.48
	c43.28,0,78.49,35.21,78.49,78.48C306.35,271.14,271.14,306.35,227.86,306.35z M308.87,165.61c-10.24,0-18.57-8.33-18.57-18.57
	s8.33-18.57,18.57-18.57s18.57,8.33,18.57,18.57S319.11,165.61,308.87,165.61z M227.86,182.55c-24.98,0-45.32,20.33-45.32,45.31
	c0,24.99,20.34,45.33,45.32,45.33c24.99,0,45.32-20.34,45.32-45.33C273.18,202.88,252.85,182.55,227.86,182.55z M0,0v455.73h455.73
	V0H0z M380.23,303.36c0,42.39-34.48,76.87-76.87,76.87H152.37c-42.39,0-76.87-34.48-76.87-76.87V152.37
	c0-42.39,34.48-76.87,76.87-76.87h150.99c42.39,0,76.87,34.48,76.87,76.87V303.36z M303.36,108.66H152.37
	c-24.1,0-43.71,19.61-43.71,43.71v150.99c0,24.1,19.61,43.71,43.71,43.71h150.99c24.1,0,43.71-19.61,43.71-43.71V152.37
	C347.07,128.27,327.46,108.66,303.36,108.66z M227.86,306.35c-43.27,0-78.48-35.21-78.48-78.49c0-43.27,35.21-78.48,78.48-78.48
	c43.28,0,78.49,35.21,78.49,78.48C306.35,271.14,271.14,306.35,227.86,306.35z M308.87,165.61c-10.24,0-18.57-8.33-18.57-18.57
	s8.33-18.57,18.57-18.57s18.57,8.33,18.57,18.57S319.11,165.61,308.87,165.61z M227.86,182.55c-24.98,0-45.32,20.33-45.32,45.31
	c0,24.99,20.34,45.33,45.32,45.33c24.99,0,45.32-20.34,45.32-45.33C273.18,202.88,252.85,182.55,227.86,182.55z M227.86,182.55
	c-24.98,0-45.32,20.33-45.32,45.31c0,24.99,20.34,45.33,45.32,45.33c24.99,0,45.32-20.34,45.32-45.33
	C273.18,202.88,252.85,182.55,227.86,182.55z M227.86,182.55c-24.98,0-45.32,20.33-45.32,45.31c0,24.99,20.34,45.33,45.32,45.33
	c24.99,0,45.32-20.34,45.32-45.33C273.18,202.88,252.85,182.55,227.86,182.55z M303.36,108.66H152.37
	c-24.1,0-43.71,19.61-43.71,43.71v150.99c0,24.1,19.61,43.71,43.71,43.71h150.99c24.1,0,43.71-19.61,43.71-43.71V152.37
	C347.07,128.27,327.46,108.66,303.36,108.66z M227.86,306.35c-43.27,0-78.48-35.21-78.48-78.49c0-43.27,35.21-78.48,78.48-78.48
	c43.28,0,78.49,35.21,78.49,78.48C306.35,271.14,271.14,306.35,227.86,306.35z M308.87,165.61c-10.24,0-18.57-8.33-18.57-18.57
	s8.33-18.57,18.57-18.57s18.57,8.33,18.57,18.57S319.11,165.61,308.87,165.61z M227.86,182.55c-24.98,0-45.32,20.33-45.32,45.31
	c0,24.99,20.34,45.33,45.32,45.33c24.99,0,45.32-20.34,45.32-45.33C273.18,202.88,252.85,182.55,227.86,182.55z M227.86,182.55
	c-24.98,0-45.32,20.33-45.32,45.31c0,24.99,20.34,45.33,45.32,45.33c24.99,0,45.32-20.34,45.32-45.33
	C273.18,202.88,252.85,182.55,227.86,182.55z M227.86,182.55c-24.98,0-45.32,20.33-45.32,45.31c0,24.99,20.34,45.33,45.32,45.33
	c24.99,0,45.32-20.34,45.32-45.33C273.18,202.88,252.85,182.55,227.86,182.55z M303.36,108.66H152.37
	c-24.1,0-43.71,19.61-43.71,43.71v150.99c0,24.1,19.61,43.71,43.71,43.71h150.99c24.1,0,43.71-19.61,43.71-43.71V152.37
	C347.07,128.27,327.46,108.66,303.36,108.66z M227.86,306.35c-43.27,0-78.48-35.21-78.48-78.49c0-43.27,35.21-78.48,78.48-78.48
	c43.28,0,78.49,35.21,78.49,78.48C306.35,271.14,271.14,306.35,227.86,306.35z M308.87,165.61c-10.24,0-18.57-8.33-18.57-18.57
	s8.33-18.57,18.57-18.57s18.57,8.33,18.57,18.57S319.11,165.61,308.87,165.61z M227.86,182.55c-24.98,0-45.32,20.33-45.32,45.31
	c0,24.99,20.34,45.33,45.32,45.33c24.99,0,45.32-20.34,45.32-45.33C273.18,202.88,252.85,182.55,227.86,182.55z"/>
		</symbol>

		<symbol id="fb" viewBox="0 0 455.731 455.731">
			<rect x="0" y="0" width="455.731" height="455.731" fill="white"/>
			<path d="M0,0v455.73h242.704V279.691h-59.33v-71.864h59.33v-60.353c0-43.893,35.582-79.475,79.475-79.475
	h62.025v64.622h-44.382c-13.947,0-25.254,11.307-25.254,25.254v49.953h68.521l-9.47,71.864h-59.051V455.73H455.73V0H0z"/>
		</symbol>

		<symbol id="vk" viewBox="0 0 455.731 455.731">
			<rect x="0" y="0" width="455.731" height="455.731"/>
			<path style="fill:#ffffff;" d="M118.06,138.69c10.922,26.972,24.764,52.402,42.995,75.231c2.418,3.038,5.466,5.739,8.677,7.938
		c4.69,3.221,9.115,2.089,11.022-3.276c2.017-5.63,3.868-17.04,3.978-22.952c0.301-15.448-0.045-25.572-0.875-41.001
		c-0.538-9.882-4.051-18.559-18.587-21.178c-4.489-0.812-4.906-4.507-2.022-8.193c6.004-7.674,14.368-8.897,23.438-9.381
		c14.7-0.794,29.454-0.146,44.172,0c5.995,0.055,12.026,0.538,17.93,1.825c7.701,1.679,11.825,7.081,13.094,14.599
		c0.657,3.878,0.995,7.865,0.903,11.789c-0.383,16.862-1.195,33.715-1.387,50.568c-0.082,6.615,0.401,13.395,1.816,19.837
		c1.98,8.978,8.093,11.232,14.344,4.745c7.938-8.239,14.937-17.51,21.506-26.926c11.935-17.127,20.849-35.923,28.523-55.303
		c3.969-10,7.008-12.172,17.765-12.199c20.22-0.046,40.44-0.064,60.66,0c3.586,0.018,7.336,0.356,10.721,1.433
		c5.493,1.752,7.674,6.232,6.387,11.917c-3.002,13.322-10.201,24.645-17.911,35.531c-12.373,17.464-25.339,34.509-38.003,51.772
		c-1.615,2.199-3.038,4.544-4.362,6.925c-4.736,8.559-4.407,13.358,2.5,20.484c10.995,11.342,22.766,21.953,33.414,33.605
		c7.738,8.477,14.9,17.674,21.032,27.355c7.756,12.245,2.965,23.778-11.524,25.831c-9.115,1.287-53.641,0.01-55.942,0
		c-11.971-0.054-22.464-4.206-30.914-12.336c-9.398-9.051-17.939-18.979-26.963-28.423c-2.719-2.847-5.621-5.575-8.75-7.957
		c-7.382-5.63-14.627-4.38-18.076,4.289c-2.947,7.446-5.493,26.999-5.612,28.669c-0.62,8.732-6.177,14.298-15.959,14.836
		c-28.24,1.533-55.605-1.615-81.098-15.274c-21.607-11.57-38.861-27.93-53.807-47.009c-23.742-30.304-42.495-63.615-59.616-97.904
		c-0.875-1.753-18.216-38.653-18.682-40.396c-1.549-5.836-0.104-11.411,4.827-13.33c3.074-1.196,60.248-0.004,61.199,0.047
		C107.996,125.372,114.217,129.221,118.06,138.69z"/>
		</symbol>

		<symbol id="youtube" viewBox="0 0 455.731 455.731">
			<rect x="0" y="0" width="455.731" height="455.731"/>
			<path style="fill:#ffffff;" d="M263.259,291.734c-0.01-1.7-0.51-3.47-1.14-5.06c-0.84-2.09-2.64-3.13-4.9-3.35
			c-2.65-0.26-4.77,0.81-6.69,2.51c-0.77,0.67-1.12,1.67-1.12,1.67l0.04,53.97v1.33c0,0,0.46,0.62,0.53,0.7
			c1.56,1.69,3.38,3.03,5.71,3.51c3.84,0.79,6.55-0.81,7.3-4.37c0.19-0.89,0.3-1.81,0.3-2.72
			C263.309,323.854,263.339,307.794,263.259,291.734z M263.259,291.734c-0.01-1.7-0.51-3.47-1.14-5.06
			c-0.84-2.09-2.64-3.13-4.9-3.35c-2.65-0.26-4.77,0.81-6.69,2.51c-0.77,0.67-1.12,1.67-1.12,1.67l0.04,53.97v1.33
			c0,0,0.46,0.62,0.53,0.7c1.56,1.69,3.38,3.03,5.71,3.51c3.84,0.79,6.55-0.81,7.3-4.37c0.19-0.89,0.3-1.81,0.3-2.72
			C263.309,323.854,263.339,307.794,263.259,291.734z M323.689,210.344c-63.87-1.37-127.77-1.37-191.65,0
			c-22.16,0.47-39.88,18.59-39.88,40.76v99.76c0,22.18,17.72,40.3,39.88,40.77c63.88,1.37,127.78,1.37,191.65,0
			c22.17-0.47,39.89-18.59,39.89-40.77v-99.76C363.579,228.935,345.859,210.814,323.689,210.344z M150.799,359.955h-18.42v-104.13
			h-19.07v-17.42h56.6v17.38h-19.11V359.955z M216.719,316.734v43.23h-16.31v-9.88c-0.59,0.63-0.92,0.97-1.23,1.32
			c-3.51,3.96-7.49,7.26-12.57,9.01c-2.48,0.85-5.03,1.14-7.64,0.69c-3.56-0.59-5.95-2.64-7.39-5.88c-1.34-2.99-1.68-6.19-1.69-9.41
			c-0.04-11.9-0.02-74.88-0.02-75.49h16.27c0.03,0.55,0.09,45.76,0.1,67.81c0,1.2,0.01,2.43,0.25,3.6c0.6,2.96,2.87,4.23,5.72,3.19
			c3.28-1.2,5.78-3.46,7.88-6.17c0.31-0.39,0.31-1.09,0.31-1.65v-66.88l16.32-0.04C216.719,270.185,216.719,301.754,216.719,316.734
			z M278.769,351.324c-2.18,6.56-6.98,9.9-13.88,9.83c-5.61-0.05-10.16-2.28-13.91-6.35c-0.42-0.45-1.58-1.68-1.58-1.68v6.82h-16.34
			v-121.55h16.34c0,12.94,0,40.01,0,40.01s0.92-1.84,1.76-2.79c2.53-2.83,5.61-5.02,9.41-5.98c6.27-1.57,13.5,0.37,16.94,7.7
			c2.03,4.33,2.6,8.95,2.6,13.65c0.03,16.99,0.03,33.98,0.01,50.97C280.109,345.134,279.779,348.275,278.769,351.324z
			 M339.119,347.905c-2.83,8.29-8.68,12.89-17.26,14.15c-5.32,0.78-10.59,0.67-15.58-1.59c-6.83-3.08-10.7-8.65-12.36-15.74
			c-0.77-3.3-1.15-6.76-1.19-10.15c-0.13-13.31-0.07-26.63-0.04-39.94c0.01-6.96,1.67-13.38,6.44-18.71
			c5.44-6.09,12.4-8.36,20.35-7.85c2.39,0.15,4.83,0.54,7.1,1.29c7.73,2.54,11.86,8.33,13.48,16.01c0.62,2.96,0.85,6.03,0.9,9.06
			c0.13,7.1-0.05,22.75-0.05,22.75h-31.29v22.43c0,4.03,3.26,7.29,7.29,7.29c4.02,0,7.28-3.26,7.28-7.29v-11.53h16.81
			C340.999,328.084,341.249,341.695,339.119,347.905z M324.189,290.685c0-4.02-3.26-7.29-7.28-7.29c-4.03,0-7.29,3.27-7.29,7.29
			v12.59h14.57V290.685z M262.119,286.675c-0.84-2.09-2.64-3.13-4.9-3.35c-2.65-0.26-4.77,0.81-6.69,2.51
			c-0.77,0.67-1.12,1.67-1.12,1.67l0.04,53.97v1.33c0,0,0.46,0.62,0.53,0.7c1.56,1.69,3.38,3.03,5.71,3.51
			c3.84,0.79,6.55-0.81,7.3-4.37c0.19-0.89,0.3-1.81,0.3-2.72c0.02-16.07,0.05-32.13-0.03-48.19
			C263.249,290.034,262.749,288.264,262.119,286.675z"/>
			<path style="fill:#ffffff;" d="M303.887,94.99l-0.005,90.244H287.16l0.02-9.695c-1.849,1.821-3.427,3.522-5.161,5.05
			c-3.074,2.708-6.556,4.727-10.629,5.524c-6.253,1.223-11.579-0.754-13.573-7.23c-0.664-2.157-1.065-4.482-1.082-6.734V94.99
			h16.596v68.821c0,0.912,0.073,1.834,0.233,2.728c0.504,2.836,2.6,4.171,5.331,3.224c3.329-1.152,5.869-3.457,8.024-6.173
			c0.306-0.388,0.251-1.112,0.251-1.681V94.99H303.887z"/>
			<path style="fill:#ffffff;" d="M165.578,110.672c-3.63-15.301-11.235-47.602-11.235-47.602h-19.029
			c0,0,14.62,48.487,21.158,70.111c0.235,0.782,0.343,1.631,0.343,2.45l-0.007,49.584h17.547l-0.007-49.584
			c0-0.819,0.108-1.668,0.343-2.45c6.538-21.624,21.158-70.111,21.158-70.111H176.82c0,0-7.606,32.301-11.235,47.602H165.578z"/>
			<path style="fill:#ffffff;" d="M218.752,92.731L218.752,92.731c-13.224,0-23.944,10.72-23.944,23.944v46.859
			c0,13.224,10.72,23.944,23.944,23.944h0c13.224,0,23.944-10.72,23.944-23.944v-46.859
			C242.697,103.451,231.976,92.731,218.752,92.731z M225.662,164.48c0,3.81-3.1,6.909-6.909,6.909s-6.909-3.099-6.909-6.909v-48.752
			c0-3.81,3.1-6.909,6.909-6.909s6.909,3.1,6.909,6.909V164.48z"/>
		</symbol>
	</defs>
</svg>